<?xml version="1.0" encoding="UTF-8"?>
<svg viewBox="0 0 137.61 71.903" xmlns="http://www.w3.org/2000/svg" xmlns:xlink="http://www.w3.org/1999/xlink">
 <defs>
  <linearGradient id="e" x1="1.0105" x2="-.010477" y1=".5" y2=".5" xlink:href="#a"/>
  <linearGradient id="a">
   <stop stop-color="#99df59" offset="0"/>
   <stop stop-color="#1c830a" offset="1"/>
  </linearGradient>
  <linearGradient id="d" x1=".18805" x2=".87933" y1=".28192" y2=".50003" xlink:href="#a"/>
 </defs>
 <g stroke="#000">
  <path d="m124.43 22.304a54.782 18.126 0 1 1 -109.56 0 54.782 18.126 0 1 1 109.56 0z" fill="url(#d)" stroke-linecap="round" stroke-linejoin="round" stroke-width="2.355"/>
  <g fill-rule="evenodd">
   <path d="m123.63 53.321l0.7997-31.424c-8.5311 25.784-102.64 21.755-109.57 0l0.7998 32.23c15.196 15.041 81.579 25.247 107.97-0.80579z" fill="url(#e)" stroke-width="2.292"/>
   <g fill="#faf7f7" stroke-width="1.134">
    <path d="m69.422 16.968l8.1078 3.1274 13.632-6.5698 4.6661 3.2321 1.9348-7.7078-16.438-0.0689 5.919 2.4053-17.823 5.5818z"/>
    <path d="m66.482 25.802l-8.9239-3.3193-12.816 6.378-4.6662-3.2321-1.9348 7.7078 16.438 0.069-5.919-2.4053 17.823-5.1981z"/>
    <path d="m103.2 31.168l-8.1078 3.1274-13.632-6.5698-4.6662 3.2321-1.9349-7.7078 16.438-0.069-5.9189 2.4053 17.823 5.5818z"/>
    <path d="m35.693 11.725l8.1078-3.1274 13.632 6.5698 4.6661-3.2321 1.9349 7.7078-16.438 0.069 5.9189-2.4053-17.823-5.5818z"/>
   </g>
  </g>
 </g>
</svg>
