<?xml version="1.0" encoding="UTF-8"?>
<svg viewBox="0 0 199.1 199.8625" xmlns="http://www.w3.org/2000/svg">
 <defs>
  <linearGradient id="b" x1="201.7" x2="340.39" gradientUnits="userSpaceOnUse">
   <stop stop-color="#1b4a78" offset="0"/>
   <stop stop-color="#5dacd1" offset="1"/>
  </linearGradient>
  <radialGradient id="a" cx="328.57" cy="602.72" r="147.14" gradientTransform="matrix(1 0 0 .17718 -2.5632e-14 495.93)" gradientUnits="userSpaceOnUse">
   <stop stop-color="#484849" offset="0"/>
   <stop stop-color="#434344" offset="0"/>
   <stop stop-color="#8f8f90" stop-opacity="0" offset="1"/>
  </radialGradient>
 </defs>
 <g transform="translate(-168.57 -361.43)">
  <path transform="matrix(.59257 0 0 1.0459 75.121 -130.21)" d="m475.71 602.72a147.14 26.071 0 1 1 -294.29 0 147.14 26.071 0 1 1 294.29 0z" fill="url(#a)"/>
  <path d="m201.71 435.71v0.29457c0.00629-0.09754 0.02056-0.19729 0.02946-0.29457h-0.02946zm138.62 0c0.03021 0.33044 0.05892 0.66821 0.05892 1.0015v-1.0015h-0.05892zm0.05892 1.0015c-1e-5 15.052-31.075 27.262-69.356 27.262-37.683 1e-5 -68.376-11.828-69.326-26.555v40.68c-0.01508 0.23376-0.01473 0.45704-0.01473 0.69223 0 0.22546 8.7e-4 0.45335 0.01473 0.67751 0.91151 14.741 31.619 26.599 69.326 26.599s68.415-11.858 69.326-26.599h0.02946v-0.50077c9.5e-4 -0.05871 0-0.11794 0-0.17674s9.4e-4 -0.11803 0-0.17674v-41.902z" fill="url(#b)"/>
  <path transform="matrix(.47131 0 0 1.0459 116.19 -191.57)" d="m475.71 602.72a147.14 26.071 0 1 1 -294.29 0 147.14 26.071 0 1 1 294.29 0z" fill="#3a78a0"/>
  <g transform="matrix(.84958 .27671 -.70362 .33412 443.2 133.23)" fill="#f2fdff" fill-opacity=".71171">
   <path d="m328.67 592.83-5.9787 10.353-5.9787 10.353h6.1844v21.241h11.532v-21.241h6.1844l-5.9787-10.353-5.965-10.353z"/>
   <path d="m328.67 687.11-5.9787-10.353-5.9787-10.353h6.1844v-21.241h11.532v21.241h6.1844l-5.9787 10.353-5.965 10.353z"/>
   <path d="m333.75 639.82 10.353-5.9787 10.353-5.9787v6.1844h21.241v11.532h-21.241v6.1844l-10.353-5.9787-10.353-5.965z"/>
   <path d="m323.36 639.82-10.353-5.9787-10.353-5.9787v6.1844h-21.241v11.532h21.241v6.1844l10.353-5.9787 10.353-5.965z"/>
  </g>
 </g>
</svg>
